<svg data-name="404-pattern" xmlns="http://www.w3.org/2000/svg" width="158.846" height="193.843" viewBox="0 0 158.846 193.843">
    <g data-name="Group 2590">
        <path data-name="Rectangle 4289" transform="translate(105.994 140.99)" style="fill:#212121" d="M0 0h.008v17.617H0z"/>
        <path data-name="Rectangle 4290" transform="translate(141.228 140.991)" style="fill:#212121" d="M0 0h17.617v35.235H0z"/>
        <path data-name="Rectangle 4291" transform="translate(105.994 123.356)" style="fill:#212121" d="M0 0h35.235v17.617H0z"/>
        <path data-name="Rectangle 4292" transform="translate(70.76 123.356)" style="fill:#212121" d="M0 0h17.617v17.617H0z"/>
        <path data-name="Path 12354" d="m742.682 371.536 17.617 4.607v-22.224.011l-17.617 17.6z" transform="translate(-636.688 -248.199)" style="fill:#212121"/>
        <path data-name="Path 12355" d="M793.368 414.619V397h-17.617v17.625h8.8v-.008z" transform="translate(-652.14 -308.915)" style="fill:#212121"/>
        <path data-name="Path 12356" d="M727.231 414.619V397h-17.618v17.625h8.8v-.008z" transform="translate(-621.237 -308.915)" style="fill:#212121"/>
        <path data-name="Path 12357" d="M727.231 465.355v-35.242h-17.618v35.257h8.8v-.016z" transform="translate(-621.237 -359.666)" style="fill:#212121"/>
        <path data-name="Path 12358" d="M643.477 397.017v17.617h17.618z" transform="translate(-590.335 -308.93)" style="fill:#212121"/>
        <path data-name="Path 12373" d="M661.095 414.635v-17.618h-17.618z" transform="translate(-625.715 -308.93)" style="fill:#212121"/>
        <path data-name="Path 12359" d="M661.095 249.194v-17.617h-17.618z" transform="translate(-590.335 -55.351)" style="fill:#212121"/>
        <path data-name="Rectangle 4293" transform="translate(141.228 70.451)" style="fill:#212121" d="M0 0h17.617v17.617H0z"/>
        <path data-name="Path 12360" d="m760.306 297.717-17.606 4.607 17.6 17.617h.008z" transform="translate(-636.695 -161.334)" style="fill:#212121"/>
        <path data-name="Rectangle 4294" transform="translate(88.377 140.991)" style="fill:#212121" d="M0 0h17.617v17.617H0z"/>
        <path data-name="Rectangle 4295" transform="translate(88.376 140.966)" style="fill:#212121" d="M0 0h17.617v.008H0z"/>
        <path data-name="Path 12361" d="M714.236 320.823h-.008l-4.607 17.617h4.607v4.607l17.609-4.607z" transform="translate(-625.848 -197.471)" style="fill:#212121"/>
        <path data-name="Path 12362" d="M826.436 531.458v-35.235l-17.617 17.617v17.617z" transform="translate(-667.59 -478.605)" style="fill:#212121"/>
        <path data-name="Rectangle 4296" transform="translate(88.377 17.618)" style="fill:#212121" d="M0 0h17.617v17.617H0z"/>
        <path data-name="Rectangle 4297" transform="translate(105.994 .001)" style="fill:#212121" d="M0 0h17.617v17.617H0z"/>
        <path data-name="Path 12363" d="M777.917 513.841v-17.617H760.3v17.617h-17.617l17.617 17.617z" transform="translate(-636.689 -478.606)" style="fill:#212121"/>
        <path data-name="Rectangle 4298" transform="translate(53.142)" style="fill:#212121" d="M0 0h35.235v17.617H0z"/>
        <path data-name="Rectangle 4299" transform="translate(53.142 35.235)" style="fill:#212121" d="M0 0h17.617v17.617H0z"/>
        <path data-name="Path 12364" d="M777.917 480.772v-17.618h-35.235v17.608H760.3v.009z" transform="translate(-636.688 -410.302)" style="fill:#212121"/>
        <path data-name="Path 12365" d="M628.025 480.772v-17.618h-17.617v17.608h8.809v.009z" transform="translate(-574.883 -410.302)" style="fill:#212121"/>
        <path data-name="Path 12375" d="M628.025 480.772v-17.618h-17.617v17.608h8.809v.009z" transform="translate(-610.408 -410.302)" style="fill:#212121"/>
        <path data-name="Path 12376" d="M628.025 480.772v-17.618l-17.617 17.608h8.809z" transform="translate(-592.646 -445.537)" style="fill:#212121"/>
    </g>
</svg>
