<svg xmlns="http://www.w3.org/2000/svg" width="40" height="40" viewBox="0 0 40 40">
    <path data-name="Path 5610" d="M0 0h40v40H0z" style="fill:none"/>
    <path data-name="Path 5611" d="M21.25 33.392a14.01 14.01 0 1 0-3.5 0V23h-3.5v-3.5h3.5v-2.895c0-2.34.245-3.188.7-4.044a4.771 4.771 0 0 1 1.988-1.986 6.935 6.935 0 0 1 2.952-.667 11.3 11.3 0 0 1 2.236.14v3.325h-.876a6.346 6.346 0 0 0-2.664.287 1.272 1.272 0 0 0-.55.55c-.21.4-.287.788-.287 2.394v2.9h4.375L24.75 23h-3.5zM19.5 37A17.5 17.5 0 1 1 37 19.5 17.5 17.5 0 0 1 19.5 37z" transform="translate(.5 .5)" style="fill:#212121"/>
</svg>
