<svg xmlns="http://www.w3.org/2000/svg" width="40" height="40" viewBox="0 0 40 40">
    <path data-name="Path 4382" d="M0 0h40v40H0z" style="fill:none"/>
    <path data-name="Path 4383" d="M18.667 13.667a5 5 0 1 0 5 5 5 5 0 0 0-5-5zm0-3.333a8.333 8.333 0 1 1-8.333 8.333 8.333 8.333 0 0 1 8.333-8.333zM29.5 9.917a2.083 2.083 0 1 1-2.083-2.083A2.083 2.083 0 0 1 29.5 9.917zM18.667 5.333c-4.123 0-4.8.012-6.715.1a9.055 9.055 0 0 0-3 .553A5.137 5.137 0 0 0 5.985 8.95a9.042 9.042 0 0 0-.552 3c-.09 1.842-.1 2.485-.1 6.717 0 4.123.012 4.8.1 6.715a9.09 9.09 0 0 0 .552 3 5.182 5.182 0 0 0 2.97 2.972 9.073 9.073 0 0 0 3 .555c1.833.087 2.483.1 6.715.1 4.123 0 4.8-.012 6.715-.1a9.108 9.108 0 0 0 3-.552 4.868 4.868 0 0 0 1.8-1.167 4.818 4.818 0 0 0 1.167-1.8 9.112 9.112 0 0 0 .553-3c.087-1.833.1-2.483.1-6.715 0-4.123-.012-4.8-.1-6.715a9.072 9.072 0 0 0-.553-3 4.852 4.852 0 0 0-1.167-1.8 4.807 4.807 0 0 0-1.8-1.167 9.05 9.05 0 0 0-3-.552c-1.843-.098-2.485-.108-6.718-.108zm0-3.333c4.528 0 5.093.017 6.87.1a12.278 12.278 0 0 1 4.047.775A8.127 8.127 0 0 1 32.537 4.8a8.18 8.18 0 0 1 1.921 2.95 12.312 12.312 0 0 1 .775 4.047c.078 1.777.1 2.342.1 6.87s-.017 5.093-.1 6.87a12.322 12.322 0 0 1-.775 4.047 8.51 8.51 0 0 1-4.875 4.875 12.312 12.312 0 0 1-4.047.775c-1.777.078-2.333.1-6.87.1s-5.093-.017-6.87-.1a12.322 12.322 0 0 1-4.047-.775 8.51 8.51 0 0 1-4.875-4.875 12.268 12.268 0 0 1-.774-4.047C2.022 23.76 2 23.2 2 18.667s.017-5.093.1-6.87a12.268 12.268 0 0 1 .775-4.047A8.133 8.133 0 0 1 4.8 4.8a8.167 8.167 0 0 1 2.95-1.925A12.268 12.268 0 0 1 11.8 2.1c1.773-.078 2.338-.1 6.867-.1z" transform="translate(1.333 1.333)" style="fill:#212121"/>
</svg>
