<svg xmlns="http://www.w3.org/2000/svg" width="375.305" height="158.791" viewBox="0 0 375.305 158.791">
    <g data-name="Group 2590">
        <path data-name="Rectangle 4288" transform="rotate(-90 258.237 -99.446)" style="fill:#cdea50" d="M0 0h17.611v17.622H0z"/>
        <path data-name="Rectangle 4289" transform="rotate(-90 161.31 -55.345)" style="fill:#cdea50" d="M0 0h.008v17.622H0z"/>
        <path data-name="Rectangle 4290" transform="rotate(-90 178.91 -20.12)" style="fill:#cdea50" d="M0 0h17.611v35.245H0z"/>
        <path data-name="Rectangle 4291" transform="rotate(-90 187.736 -46.556)" style="fill:#cdea50" d="M0 0h35.223v17.622H0z"/>
        <path data-name="Rectangle 4292" transform="rotate(-90 161.32 -72.973)" style="fill:#cdea50" d="M0 0h17.611v17.622H0z"/>
        <path data-name="Path 12354" d="m760.293 358.527-17.611-4.608v22.23-.011l17.611-17.6z" transform="rotate(-90 379.828 486.422)" style="fill:#cdea50"/>
        <path data-name="Path 12355" d="M775.75 397.01v17.622h17.611V397h-8.8v.008z" transform="rotate(-90 394.746 522.185)" style="fill:#cdea50"/>
        <path data-name="Path 12356" d="M709.613 397.01v17.622h17.612V397h-8.8v.008z" transform="rotate(-90 344.066 471.505)" style="fill:#cdea50"/>
        <path data-name="Path 12357" d="M709.613 430.129v35.251h17.612V430.113h-8.8v.016z" transform="rotate(-90 327.514 488.056)" style="fill:#cdea50"/>
        <path data-name="Path 12358" d="M661.088 414.64v-17.623h-17.611z" transform="rotate(-90 293.383 420.829)" style="fill:#cdea50"/>
        <path data-name="Path 12373" d="M643.477 397.017v17.623h17.612z" transform="rotate(-90 275.699 403.145)" style="fill:#cdea50"/>
        <path data-name="Path 12359" d="M643.477 231.577V249.2h17.612z" transform="rotate(-90 332.022 382.19)" style="fill:#cdea50"/>
        <path data-name="Rectangle 4293" transform="rotate(-90 223.002 -64.211)" style="fill:#cdea50" d="M0 0h17.611v17.622H0z"/>
        <path data-name="Path 12360" d="m742.7 319.947 17.6-4.608-17.6-17.622z" transform="rotate(-90 392.601 473.664)" style="fill:#cdea50"/>
        <path data-name="Rectangle 4294" transform="rotate(-90 161.306 -55.348)" style="fill:#cdea50" d="M0 0h17.611v17.622H0z"/>
        <path data-name="Rectangle 4295" transform="rotate(-90 170.125 -64.168)" style="fill:#cdea50" d="M0 0h17.611v.008H0z"/>
        <path data-name="Path 12361" d="M727.216 343.053h.008l4.605-17.622h-4.605v-4.608l-17.6 4.608z" transform="rotate(-90 362.22 453.355)" style="fill:#cdea50"/>
        <path data-name="Path 12362" d="M808.819 496.223v35.245l17.611-17.622v-17.623z" transform="rotate(-90 396.913 570.697)" style="fill:#cdea50"/>
        <path data-name="Rectangle 4296" transform="rotate(-90 223.01 -117.052)" style="fill:#cdea50" d="M0 0h17.611v17.622H0z"/>
        <path data-name="Rectangle 4297" transform="rotate(-90 240.626 -117.057)" style="fill:#cdea50" d="M0 0h17.611v17.622H0z"/>
        <path data-name="Path 12363" d="M742.683 513.846v17.622h17.611v-17.622H777.9l-17.611-17.622z" transform="rotate(-90 355.039 528.824)" style="fill:#cdea50"/>
        <path data-name="Rectangle 4298" transform="rotate(-90 223.015 -134.668)" style="fill:#cdea50" d="M0 0h35.223v17.622H0z"/>
        <path data-name="Rectangle 4299" transform="rotate(-90 196.587 -125.852)" style="fill:#cdea50" d="M0 0h17.611v17.622H0z"/>
        <path data-name="Path 12364" d="M742.682 463.154v17.622H777.9v-17.612h-17.607v-.009z" transform="rotate(-90 362.762 521.1)" style="fill:#cdea50"/>
        <path data-name="Path 12365" d="M610.408 463.154v17.622h17.611v-17.612h-8.806v-.009z" transform="rotate(-90 252.597 410.935)" style="fill:#cdea50"/>
        <path data-name="Path 12375" d="M610.408 463.154v17.622h17.611v-17.612h-8.806v-.009z" transform="rotate(-90 234.84 393.179)" style="fill:#cdea50"/>
    </g>
    <g data-name="Group 2591">
        <path data-name="Rectangle 4300" transform="rotate(-90 178.91 -20.12)" style="fill:#cdea50" d="M0 0h17.611v17.622H0z"/>
        <path data-name="Rectangle 4301" transform="rotate(-90 81.983 23.982)" style="fill:#cdea50" d="M0 0h.008v17.622H0z"/>
        <path data-name="Rectangle 4302" transform="rotate(-90 108.396 50.395)" style="fill:#cdea50" d="M0 0h17.611v35.26H0z"/>
        <path data-name="Rectangle 4303" transform="rotate(-90 117.215 41.576)" style="fill:#cdea50" d="M0 0h35.223v17.622H0z"/>
        <path data-name="Rectangle 4323" transform="rotate(-90 90.783 68.008)" style="fill:#cdea50" d="M0 0h35.223v17.622H0z"/>
        <path data-name="Path 12366" d="M777.9 66.2h-35.218v17.627h17.611v-.011l17.611-17.6z" transform="rotate(-90 455.469 428.393)" style="fill:#cdea50"/>
        <path data-name="Path 12367" d="M775.75 99.312v52.878h17.611V99.288h-8.8v.024z" transform="rotate(-90 446.641 470.289)" style="fill:#cdea50"/>
        <path data-name="Path 12382" d="M775.75 99.314v57.956h17.611V99.288h-8.8v.026z" transform="rotate(-90 408.821 508.109)" style="fill:#cdea50"/>
        <path data-name="Rectangle 4304" transform="rotate(-90 143.676 15.115)" style="fill:#cdea50" d="M0 0h17.611v17.622H0z"/>
        <path data-name="Rectangle 4305" transform="rotate(-90 117.258 -11.302)" style="fill:#cdea50" d="M0 0h17.611v17.622H0z"/>
        <path data-name="Rectangle 4306" transform="rotate(-90 90.825 -20.09)" style="fill:#cdea50" d="M0 0h17.611v17.622H0z"/>
        <path data-name="Rectangle 4307" transform="rotate(-90 64.384 -11.26)" style="fill:#cdea50" d="M0 0h17.611v17.622H0z"/>
        <path data-name="Path 12368" d="M742.7 17.625h17.6L742.7 0z" transform="rotate(-90 462.132 404.133)" style="fill:#cdea50"/>
        <path data-name="Path 12384" d="M742.7 17.625h17.6L742.7 0z" transform="rotate(-90 409.193 386.475)" style="fill:#cdea50"/>
        <path data-name="Rectangle 4308" transform="rotate(-90 81.979 23.979)" style="fill:#cdea50" d="M0 0h17.611v17.622H0z"/>
        <path data-name="Rectangle 4309" transform="rotate(-90 90.798 15.159)" style="fill:#cdea50" d="M0 0h17.611v.008H0z"/>
        <path data-name="Path 12369" d="M709.613 50.722v.008h17.611V33.116z" transform="rotate(-90 429.051 386.519)" style="fill:#cdea50"/>
        <path data-name="Path 12383" d="M709.613 50.722v.008h17.611V33.116z" transform="rotate(-90 402.591 412.978)" style="fill:#cdea50"/>
        <path data-name="Path 12370" d="M808.819 198.508v35.245l17.611-17.622v-17.623z" transform="rotate(-90 466.443 501.166)" style="fill:#cdea50"/>
        <path data-name="Path 12371" d="M709.613 233.753h17.611v17.622h17.611v-17.622h17.611v-17.622h-17.61v-17.623z" transform="rotate(-90 408.035 442.758)" style="fill:#cdea50"/>
        <path data-name="Rectangle 4310" transform="rotate(-90 143.689 -55.342)" style="fill:#cdea50" d="M0 0h17.611v17.622H0z"/>
        <path data-name="Rectangle 4315" transform="rotate(-90 117.199 -81.831)" style="fill:#cdea50" d="M0 0h17.611v17.622H0z"/>
        <path data-name="Path 12372" d="M742.682 150.01v17.622H777.9v-17.6l-17.611-17.622v17.6z" transform="rotate(-90 440.008 443.855)" style="fill:#cdea50"/>
        <path data-name="Path 12381" d="M742.682 150.01v17.622H777.9v-17.6l-17.611-17.622v17.6z" transform="rotate(-90 387.106 496.756)" style="fill:#cdea50"/>
    </g>
</svg>
